<svg width="150" height="120" viewBox="0 0 150 120" fill="none" xmlns="http://www.w3.org/2000/svg">
<path d="M65.3679 119.883L51.0722 115.734C49.5723 115.312 48.7286 113.742 49.1505 112.242L81.1402 2.0305C81.562 0.53039 83.1322 -0.313424 84.6321 0.108483L98.9278 4.25723C100.428 4.67914 101.271 6.24957 100.85 7.74968L68.8599 117.961C68.4146 119.461 66.8678 120.328 65.3679 119.883ZM38.6513 93.5843L48.8458 82.7084C49.9238 81.5599 49.8535 79.7317 48.6583 78.6769L27.4256 59.9958L48.6583 41.3147C49.8535 40.2599 49.9473 38.4317 48.8458 37.2832L38.6513 26.4073C37.5967 25.2822 35.8156 25.2119 34.6672 26.2901L0.896414 57.9331C-0.298805 59.0348 -0.298805 60.9334 0.896414 62.035L34.6672 93.7015C35.8156 94.7797 37.5967 94.7328 38.6513 93.5843ZM115.333 93.7249L149.104 62.0585C150.299 60.9568 150.299 59.0582 149.104 57.9566L115.333 26.2667C114.208 25.2119 112.427 25.2588 111.349 26.3839L101.154 37.2597C100.076 38.4082 100.146 40.2365 101.342 41.2913L122.574 59.9958L101.342 78.6769C100.146 79.7317 100.053 81.5599 101.154 82.7084L111.349 93.5843C112.403 94.7328 114.184 94.7797 115.333 93.7249Z" fill="#FDFDFD"/>
</svg>
