<svg width="110" height="49" viewBox="0 0 110 49" fill="none" xmlns="http://www.w3.org/2000/svg">
<path d="M11.2839 34L10.3559 28.88H5.97188L5.10788 34H0.531876L4.88388 11.824H11.5719L15.8599 34H11.2839ZM6.64388 24.816H9.65188L8.11588 16.24L6.64388 24.816ZM23.9321 15.952C25.0628 15.3333 26.2361 15.024 27.4521 15.024C28.6681 15.024 29.6388 15.3653 30.3641 16.048C31.1108 16.7093 31.4841 17.712 31.4841 19.056V34H26.5881V20.24C26.5881 19.728 26.3108 19.472 25.7561 19.472C25.2015 19.472 24.6895 19.6107 24.2201 19.888V34H19.3881V15.12H23.9321V15.952ZM49.1126 17.2H47.9926C47.822 17.2 47.5873 17.2213 47.2886 17.264C47.694 17.9467 47.8966 18.8 47.8966 19.824V22.576C47.8966 24.1547 47.406 25.3813 46.4246 26.256C45.4433 27.1307 43.9606 27.5893 41.9766 27.632C41.422 27.632 41.1446 27.8667 41.1446 28.336C41.1446 28.6133 41.23 28.8053 41.4006 28.912C41.5926 28.9973 41.934 29.04 42.4246 29.04H44.1846C45.8273 29.04 47.0433 29.3707 47.8326 30.032C48.6433 30.672 49.0486 31.6853 49.0486 33.072V33.872C49.0486 35.4293 48.4833 36.6347 47.3526 37.488C46.222 38.3627 44.5366 38.8 42.2966 38.8H41.1126C39.7473 38.8 38.542 38.6507 37.4966 38.352C36.4513 38.0747 35.6726 37.7547 35.1606 37.392V33.008C35.758 33.4773 36.59 33.8827 37.6566 34.224C38.7233 34.5867 39.8326 34.768 40.9846 34.768H41.6566C42.766 34.768 43.5233 34.6827 43.9286 34.512C44.3553 34.3627 44.5686 34.1067 44.5686 33.744V33.584C44.5686 33.1573 44.206 32.944 43.4806 32.944H41.5286C39.9926 32.944 38.8406 32.72 38.0726 32.272C37.3046 31.824 36.9206 31.0987 36.9206 30.096V29.584C36.9206 28.24 37.518 27.4613 38.7126 27.248C36.5153 26.5227 35.4166 24.9653 35.4166 22.576V19.824C35.4166 18.224 35.9286 16.9867 36.9526 16.112C37.998 15.2373 39.566 14.8 41.6566 14.8C43.0433 14.8 44.206 14.992 45.1446 15.376C45.6353 13.7333 46.7873 12.912 48.6006 12.912H49.1126V17.2ZM43.0966 22.544V19.856C43.0966 19.024 42.6166 18.608 41.6566 18.608C40.6966 18.608 40.2166 19.024 40.2166 19.856V22.544C40.2166 23.376 40.6966 23.792 41.6566 23.792C42.6166 23.792 43.0966 23.376 43.0966 22.544ZM52.3144 28.624V19.952C52.3144 18.3307 52.8157 17.072 53.8184 16.176C54.821 15.2587 56.3357 14.8 58.3624 14.8C62.2664 14.8 64.2184 16.5173 64.2184 19.952V26.448H56.9544V28.24C56.9544 28.88 57.125 29.3387 57.4664 29.616C57.829 29.872 58.6077 30 59.8024 30C61.0184 30 62.341 29.7867 63.7704 29.36V33.584C62.277 33.9893 60.677 34.192 58.9704 34.192C54.533 34.192 52.3144 32.336 52.3144 28.624ZM56.9544 22.768H59.7704V20.016C59.7704 19.2053 59.301 18.8 58.3624 18.8C57.4237 18.8 56.9544 19.2053 56.9544 20.016V22.768ZM68.3669 11.824H73.2309V29.968H79.1509V34H68.3669V11.824ZM81.9259 20.112C81.9259 18.4053 82.4379 17.1253 83.4619 16.272C84.5072 15.3973 86.1819 14.96 88.4859 14.96C90.0645 14.96 91.3659 15.12 92.3899 15.44V19.696C91.4299 19.376 90.3739 19.216 89.2219 19.216C88.0912 19.216 87.3659 19.312 87.0459 19.504C86.7472 19.696 86.5979 20.0053 86.5979 20.432V20.688C86.5979 20.944 86.6725 21.168 86.8219 21.36C86.9925 21.5307 87.3445 21.7973 87.8779 22.16L90.4699 23.888C91.2805 24.4213 91.8992 25.008 92.3259 25.648C92.7739 26.288 92.9979 27.088 92.9979 28.048V28.848C92.9979 32.3893 90.6725 34.16 86.0219 34.16C84.4005 34.16 83.0139 34.0213 81.8619 33.744V29.424C82.8645 29.7227 83.9739 29.872 85.1899 29.872C86.4059 29.872 87.2059 29.776 87.5899 29.584C87.9952 29.3707 88.1979 29.0613 88.1979 28.656V28.368C88.1979 28.048 88.0912 27.792 87.8779 27.6C87.6219 27.344 86.3952 26.4907 84.1979 25.04C82.6832 24.016 81.9259 22.6507 81.9259 20.944V20.112Z" fill="#FDFDFD"/>
<path fill-rule="evenodd" clip-rule="evenodd" d="M101.151 12.1549C97.1113 18.615 107.894 18.615 103.849 12.1549C110.009 18.615 111.731 17.0113 104.808 11.259C111.731 15.0299 111.731 4.96544 104.808 8.74157C111.731 2.98926 110.011 1.38478 103.849 7.84566C107.889 1.38478 97.1057 1.38478 101.151 7.84566C94.9885 1.38478 93.2695 2.98926 100.192 8.74157C93.2695 4.97062 93.2695 15.0351 100.192 11.259C93.2695 17.0113 94.9885 18.615 101.151 12.1549ZM102.5 11.75C103.536 11.75 104.375 10.9665 104.375 10C104.375 9.0335 103.536 8.25 102.5 8.25C101.464 8.25 100.625 9.0335 100.625 10C100.625 10.9665 101.464 11.75 102.5 11.75Z" fill="#FDFDFD"/>
<path d="M100.478 20.14H103.518V34H100.478V20.14Z" fill="#FDFDFD"/>
</svg>
