<svg width="150" height="120" viewBox="0 0 150 120" fill="none" xmlns="http://www.w3.org/2000/svg">
<path d="M59.7727 61.3242C61.2375 62.7891 63.6117 62.7891 65.0766 61.3242L67.7273 58.6734C69.1922 57.2086 69.1922 54.8344 67.7273 53.3695L59.3555 45L67.725 36.6281C69.1898 35.1633 69.1898 32.7891 67.725 31.3242L65.0742 28.6734C63.6094 27.2086 61.2352 27.2086 59.7703 28.6734L46.0969 42.3469C44.632 43.8117 44.632 46.1859 46.0969 47.6508L59.7727 61.3242ZM82.275 58.6758L84.9258 61.3266C86.3906 62.7914 88.7648 62.7914 90.2297 61.3266L103.903 47.6531C105.368 46.1883 105.368 43.8141 103.903 42.3492L90.2297 28.6758C88.7648 27.2109 86.3906 27.2109 84.9258 28.6758L82.275 31.3266C80.8102 32.7914 80.8102 35.1656 82.275 36.6305L90.6445 45L82.275 53.3719C80.8102 54.8367 80.8102 57.2109 82.275 58.6758ZM146.25 97.5H89.4234C89.25 102.143 85.9758 105 81.75 105H67.5C63.1195 105 59.7609 100.905 59.8195 97.5H3.75C1.6875 97.5 0 99.1875 0 101.25V105C0 113.25 6.75 120 15 120H135C143.25 120 150 113.25 150 105V101.25C150 99.1875 148.312 97.5 146.25 97.5ZM135 11.25C135 5.0625 129.938 0 123.75 0H26.25C20.0625 0 15 5.0625 15 11.25V90H135V11.25ZM120 75H30V15H120V75Z" fill="#FDFDFD"/>
</svg>
