<svg width="150" height="120" viewBox="0 0 150 120" fill="none" xmlns="http://www.w3.org/2000/svg">
<path d="M150 61.875V58.125C150 56.0531 148.322 54.375 146.25 54.375H80.625V45H97.5C101.641 45 105 41.6414 105 37.5V7.5C105 3.35859 101.641 0 97.5 0H52.5C48.3586 0 45 3.35859 45 7.5V37.5C45 41.6414 48.3586 45 52.5 45H69.375V54.375H3.75C1.67812 54.375 0 56.0531 0 58.125V61.875C0 63.9469 1.67812 65.625 3.75 65.625H28.125V75H15C10.8586 75 7.5 78.3586 7.5 82.5V112.5C7.5 116.641 10.8586 120 15 120H52.5C56.6414 120 60 116.641 60 112.5V82.5C60 78.3586 56.6414 75 52.5 75H39.375V65.625H110.625V75H97.5C93.3586 75 90 78.3586 90 82.5V112.5C90 116.641 93.3586 120 97.5 120H135C139.141 120 142.5 116.641 142.5 112.5V82.5C142.5 78.3586 139.141 75 135 75H121.875V65.625H146.25C148.322 65.625 150 63.9469 150 61.875ZM60 30V15H90V30H60ZM45 105H22.5V90H45V105ZM127.5 105H105V90H127.5V105Z" fill="#FDFDFD"/>
</svg>
