<svg width="62" height="60" viewBox="0 0 62 60" fill="none" xmlns="http://www.w3.org/2000/svg">
<rect width="62" height="60" rx="10" fill="#13E478"/>
<path d="M16.2108 32.544L14.5329 30.8594C13.8224 30.1461 13.8224 28.9926 14.5329 28.2869L29.2189 13.535C29.9293 12.8217 31.0782 12.8217 31.7811 13.535L46.4671 28.2793C47.1776 28.9926 47.1776 30.1461 46.4671 30.8518L44.7892 32.5364C44.0711 33.2573 42.8996 33.2422 42.1966 32.5061L33.5271 23.3696V45.1788C33.5271 46.188 32.7184 47 31.7131 47H29.2944C28.2892 47 27.4804 46.188 27.4804 45.1788V23.3696L18.8034 32.5137C18.1004 33.2573 16.9289 33.2725 16.2108 32.544Z" fill="#FDFDFD"/>
</svg>
